<svg xmlns="http://www.w3.org/2000/svg" height="100%" width="100%" version="1.1" viewBox="0 0 270 193">
	<g font-size="5px" style="text-anchor:end;text-align:end;" transform="translate(18,2)" font-family="Droid Sans Mono" fill="#000">
		<text y="20">40</text>
		<text y="30">30</text>
		<text y="40">20</text>
		<text y="50">10</text>
		<text y="60">00</text>
		<text y="70">-10</text>
		<text y="80">-20</text>
		<text y="90">-30</text>
		<text y="100">-40</text>
	</g>
	<g font-size="5px" style="writing-mode:tb-rl;text-anchor:start;text-align:end;" transform="translate(0,115)" font-family="Droid Sans Mono" fill="#000">
		<text x="20">00</text>
		<text x="30">01</text>
		<text x="40">02</text>
		<text x="50">03</text>
		<text x="60">04</text>
		<text x="70">05</text>
		<text x="80">06</text>
		<text x="90">07</text>
		<text x="100">08</text>
		<text x="110">09</text>
		<text x="120">10</text>
		<text x="130">11</text>
		<text x="140">12</text>
		<text x="150">13</text>
		<text x="160">14</text>
		<text x="170">15</text>
		<text x="180">16</text>
		<text x="190">17</text>
		<text x="200">18</text>
		<text x="210">19</text>
		<text x="220">20</text>
		<text x="230">21</text>
		<text x="240">22</text>
		<text x="250">23</text>
		<text x="260">00</text>
	</g>
	<g stroke-width="0.3" stroke="#808080">
		<line y1="10" x2="260" x1="20" y2="10"/>
		<line y1="20" x2="260" x1="20" y2="20"/>
		<line y1="30" x2="260" x1="20" y2="30"/>
		<line y1="40" x2="260" x1="20" y2="40"/>
		<line y1="50" x2="260" x1="20" y2="50"/>
		<line y1="60" x2="260" x1="20" y2="60"/>
		<line y1="70" x2="260" x1="20" y2="70"/>
		<line y1="80" x2="260" x1="20" y2="80"/>
		<line y1="90" x2="260" x1="20" y2="90"/>
		<line y1="100" x2="260" x1="20" y2="100"/>
		<line y1="110" x2="260" x1="20" y2="110"/>


		<line y1="10" x2="20" x1="20" y2="110"/>
		<line y1="10" x2="30" x1="30" y2="110"/>
		<line y1="10" x2="40" x1="40" y2="110"/>
		<line y1="10" x2="50" x1="50" y2="110"/>
		<line y1="10" x2="60" x1="60" y2="110"/>
		<line y1="10" x2="70" x1="70" y2="110"/>
		<line y1="10" x2="80" x1="80" y2="110"/>
		<line y1="10" x2="90" x1="90" y2="110"/>
		<line y1="10" x2="100" x1="100" y2="110"/>
		<line y1="10" x2="110" x1="110" y2="110"/>
		<line y1="10" x2="120" x1="120" y2="110"/>
		<line y1="10" x2="130" x1="130" y2="110"/>
		<line y1="10" x2="140" x1="140" y2="110"/>
		<line y1="10" x2="150" x1="150" y2="110"/>
		<line y1="10" x2="160" x1="160" y2="110"/>
		<line y1="10" x2="170" x1="170" y2="110"/>
		<line y1="10" x2="180" x1="180" y2="110"/>
		<line y1="10" x2="190" x1="190" y2="110"/>
		<line y1="10" x2="200" x1="200" y2="110"/>
		<line y1="10" x2="210" x1="210" y2="110"/>
		<line y1="10" x2="220" x1="220" y2="110"/>
		<line y1="10" x2="230" x1="230" y2="110"/>
		<line y1="10" x2="240" x1="240" y2="110"/>
		<line y1="10" x2="250" x1="250" y2="110"/>
		<line y1="10" x2="260" x1="260" y2="110"/>
	</g>
</svg>
